name analog
datacolumns 19
datarows 33
range 0.318 0.334
endheader
time	ground_force_vx	ground_force_vy	ground_force_vz	ground_force_px	ground_force_py	ground_force_pz	l_ground_force_vx	l_ground_force_vy	l_ground_force_vz	l_ground_force_px	l_ground_force_py	l_ground_force_pz	ground_torque_x	ground_torque_y	ground_torque_z	l_ground_torque_x	l_ground_torque_y	l_ground_torque_z
0.318	-0.0	-0.0	-0.0	14.991056442260742	21.84186553955078	-430.8600463867188	-6.304653644561768	-25.79116439819336	-446.9091796875	-0.0	-0.0	-0.0	-0.0	-0.0	-0.0	100176.484375	13322.26953125	-16950.029296875
0.3185	-0.0	-0.0	-0.0	15.076576232910156	21.752498626708984	-429.45751953125	-6.828372478485107	-25.875905990600582	-446.909423828125	-0.0	-0.0	-0.0	-0.0	-0.0	-0.0	100443.4453125	13463.806640625	-17099.88671875
0.319	-0.0	-0.0	-0.0	14.9896240234375	22.19911003112793	-428.0496215820313	-6.658994674682617	-25.263399124145508	-447.5944519042969	-0.0	-0.0	-0.0	-0.0	-0.0	-0.0	100540.4296875	13307.8046875	-17129.96484375
0.3195	-0.0	-0.0	-0.0	14.62630844116211	21.92713165283203	-427.7176208496094	-7.982908248901367	-25.78993225097656	-447.2757873535156	-0.0	-0.0	-0.0	-0.0	-0.0	-0.0	100963.2265625	13634.216796875	-17426.083984375
0.32	-0.0	-0.0	-0.0	14.45311450958252	21.92607879638672	-425.62591552734375	-7.279387474060059	-25.348323822021484	-446.5569152832031	-0.0	-0.0	-0.0	-0.0	-0.0	-0.0	100547.6875	13961.7626953125	-17426.115234375
0.3205	-0.0	-0.0	-0.0	14.27649211883545	21.56300544738769	-425.5892639160156	-7.542308330535889	-25.082416534423828	-446.550048828125	-0.0	-0.0	-0.0	-0.0	-0.0	-0.0	100204.25	13602.62890625	-17542.234375
0.321	-0.0	-0.0	-0.0	14.185349464416504	21.470779418945312	-424.52923583984375	-7.98219633102417	-25.262651443481445	-445.5174560546875	-0.0	-0.0	-0.0	-0.0	-0.0	-0.0	100212.6796875	13922.2294921875	-17543.24609375
0.3215	-0.0	-0.0	-0.0	14.632195472717283	20.5050048828125	-424.51898193359375	-8.250102996826172	-25.3525333404541	-445.14837646484375	-0.0	-0.0	-0.0	-0.0	-0.0	-0.0	100215.4375	13850.89453125	-17633.03125
0.322	-0.0	-0.0	-0.0	15.345728874206545	20.05813980102539	-423.4567565917969	-8.780055046081543	-25.96504020690918	-443.0734252929688	-0.0	-0.0	-0.0	-0.0	-0.0	-0.0	99851.78125	14224.7314453125	-17692.607421875
0.3225	-0.0	-0.0	-0.0	15.524785995483398	19.705001831054688	-424.51373291015625	-9.22446346282959	-25.792837142944336	-443.07916259765625	-0.0	-0.0	-0.0	-0.0	-0.0	-0.0	99843.921875	14085.9169921875	-17869.6484375
0.323	-0.0	-0.0	-0.0	16.059871673583984	19.87212181091309	-420.3076477050781	-9.31396198272705	-25.61595916748047	-442.732177734375	-0.0	-0.0	-0.0	-0.0	-0.0	-0.0	99830.8125	14312.365234375	-17900.099609375
0.3235	-0.0	-0.0	-0.0	16.9482421875	19.693145751953125	-419.9170837402344	-9.403343200683594	-26.493539810180664	-440.6387023925781	-0.0	-0.0	-0.0	-0.0	-0.0	-0.0	99614.4453125	14020.6220703125	-17782.974609375
0.324	-0.0	-0.0	-0.0	17.038122177124023	18.45053482055664	-417.8140258789063	-9.492053985595703	-25.61384010314941	-441.329833984375	-0.0	-0.0	-0.0	-0.0	-0.0	-0.0	99368.34375	13957.9482421875	-17781.458984375
0.3245	-0.0	-0.0	-0.0	17.483388900756836	18.09253692626953	-415.6965026855469	-9.40574073791504	-25.61424446105957	-438.5325317382813	-0.0	-0.0	-0.0	-0.0	-0.0	-0.0	98775.59375	14251.6337890625	-17722.3046875
0.325	-0.0	-0.0	-0.0	17.75204086303711	17.558263778686523	-416.051025390625	-10.200428009033203	-26.1445255279541	-441.31732177734375	-0.0	-0.0	-0.0	-0.0	-0.0	-0.0	99068.5078125	14325.5205078125	-17753.576171875
0.3255	-0.0	-0.0	-0.0	18.28632354736328	16.670312881469727	-414.2757263183594	-11.174908638000488	-26.67465591430664	-438.5433654785156	-0.0	-0.0	-0.0	-0.0	-0.0	-0.0	99030.4375	14444.7197265625	-18020.291015625
0.326	-0.0	-0.0	-0.0	18.378820419311523	16.930418014526367	-414.6343994140625	-10.73582649230957	-26.497411727905277	-441.32525634765625	-0.0	-0.0	-0.0	-0.0	-0.0	-0.0	99616.2578125	14411.93359375	-18050.40625
0.3265	-0.0	-0.0	-0.0	19.26847648620605	15.866205215454102	-413.9298400878906	-11.355504035949709	-26.409225463867188	-439.5839538574219	-0.0	-0.0	-0.0	-0.0	-0.0	-0.0	99676.59375	14841.0390625	-18169.17578125
0.327	-0.0	-0.0	-0.0	19.62744903564453	15.33232307434082	-413.5752258300781	-11.266472816467283	-26.84979248046875	-441.67523193359375	-0.0	-0.0	-0.0	-0.0	-0.0	-0.0	99636.6640625	14788.7578125	-18050.90625
0.3275	-0.0	-0.0	-0.0	20.16180419921875	15.152624130249023	-416.0446166992188	-12.06428337097168	-26.5849552154541	-439.9300231933594	-0.0	-0.0	-0.0	-0.0	-0.0	-0.0	99751.984375	15092.71484375	-18288.337890625
0.328	-0.0	-0.0	-0.0	21.41019058227539	15.152388572692873	-416.04638671875	-13.040000915527344	-26.5843448638916	-438.5349731445313	-0.0	-0.0	-0.0	-0.0	-0.0	-0.0	99553.0390625	14864.2333984375	-18318.716796875
0.3285	-0.0	-0.0	-0.0	21.67809295654297	15.330490112304688	-417.8118896484375	-13.040485382080078	-25.789926528930664	-436.0904235839844	-0.0	-0.0	-0.0	-0.0	-0.0	-0.0	99573.609375	15038.00390625	-18348.203125
0.329	-0.0	-0.0	-0.0	21.499549865722656	15.865395545959473	-418.51849365234375	-12.863017082214355	-24.9068546295166	-436.43951416015625	-0.0	-0.0	-0.0	-0.0	-0.0	-0.0	99392.984375	14582.658203125	-18288.4921875
0.3295	-0.0	-0.0	-0.0	22.21269416809082	15.153715133666992	-418.5182495117188	-12.330975532531738	-24.46545791625977	-437.8354187011719	-0.0	-0.0	-0.0	-0.0	-0.0	-0.0	99765.84375	14728.365234375	-18080.4140625
0.33	-0.0	-0.0	-0.0	22.83717536926269	15.954876899719238	-420.2805786132813	-11.887408256530762	-23.75885772705078	-438.8829650878906	-0.0	-0.0	-0.0	-0.0	-0.0	-0.0	100255.2734375	14288.498046875	-17783.576171875
0.3305	-0.0	-0.0	-0.0	23.19283103942871	15.50892734527588	-419.22271728515625	-10.556805610656738	-23.31670379638672	-438.5361633300781	-0.0	-0.0	-0.0	-0.0	-0.0	-0.0	100758.796875	14302.22265625	-17337.748046875
0.331	-0.0	-0.0	-0.0	23.284502029418945	15.774406433105469	-418.8703002929688	-9.314632415771484	-23.22702980041504	-442.71490478515625	-0.0	-0.0	-0.0	-0.0	-0.0	-0.0	100889.8046875	13792.2763671875	-17306.57421875
0.3315	-0.0	-0.0	-0.0	23.37350845336914	15.775372505187988	-418.5196533203125	-7.808579921722412	-22.17009162902832	-443.0707702636719	-0.0	-0.0	-0.0	-0.0	-0.0	-0.0	102017.3671875	13757.7705078125	-16860.810546875
0.332	-0.0	-0.0	-0.0	24.08604431152344	15.330033302307127	-418.8698425292969	-7.008152008056641	-22.07777214050293	-444.1238403320313	-0.0	-0.0	-0.0	-0.0	-0.0	-0.0	102081.921875	13454.1806640625	-16563.12890625
0.3325	-0.0	-0.0	-0.0	24.531946182250977	14.350465774536133	-419.230224609375	-5.677945137023926	-21.63790702819824	-446.90869140625	-0.0	-0.0	-0.0	-0.0	-0.0	-0.0	102716.9375	13179.458984375	-16235.91796875
0.333	-0.0	-0.0	-0.0	25.777591705322266	14.616325378417969	-419.9267578125	-4.614500999450684	-21.46114730834961	-449.0069580078125	-0.0	-0.0	-0.0	-0.0	-0.0	-0.0	102909.5390625	13296.33203125	-16086.814453125
0.3335	-0.0	-0.0	-0.0	25.69606208801269	14.528827667236328	-418.8827209472656	-4.878538131713867	-21.72768783569336	-450.0630187988281	-0.0	-0.0	-0.0	-0.0	-0.0	-0.0	103717.734375	13223.80078125	-16027.013671875
0.334	-0.0	-0.0	-0.0	26.406959533691406	14.973907470703123	-422.0423583984375	-4.25433874130249	-21.81671142578125	-453.8970947265625	-0.0	-0.0	-0.0	-0.0	-0.0	-0.0	104909.6953125	13027.7919921875	-15878.619140625
